<?xml version="1.0" encoding="UTF-8"?>
<svg width="28px" height="21px" viewBox="0 0 28 21" version="1.1" xmlns="http://www.w3.org/2000/svg" xmlns:xlink="http://www.w3.org/1999/xlink">
    <!-- Generator: Sketch 45 (43475) - http://www.bohemiancoding.com/sketch -->
    <title>Shape</title>
    <desc>Created with Sketch.</desc>
    <defs></defs>
    <g id="Page-1" stroke="none" stroke-width="1" fill="none" fill-rule="evenodd">
        <g id="liefbase4" transform="translate(-1063.000000, -681.000000)" fill-rule="nonzero" fill="#FFFFFF">
            <g id="form-copy" transform="translate(798.000000, 242.000000)">
                <g id="cta" transform="translate(60.000000, 420.000000)">
                    <path d="M230.165512,40 L207.834101,40 C206.271513,40 205,38.7283871 205,37.1656774 L205,21.8350968 C205,20.2716129 206.271513,19 207.834101,19 L230.165899,19 C231.728487,19 233,20.2716129 233,21.8350968 L233,37.1656774 C233.000387,38.7283871 231.728874,40 230.165512,40 Z M208.239186,21 C207.555806,21 207,21.5480432 207,22.2217946 L207,36.7789405 C207,37.4523243 207.555806,38 208.239186,38 L229.760068,38 C230.443821,38 231,37.4523243 231,36.7789405 L231,22.2217946 C231,21.5480432 230.444194,21 229.760814,21 L208.239186,21 Z M227.290908,35.5 C227.117334,35.5 226.943759,35.4347981 226.807304,35.3036699 L221.919646,30.6040625 L219.651159,32.8712771 C219.380722,33.1425895 218.949791,33.1462118 218.673698,32.8806952 L216.094827,30.40085 L211.206816,35.2859205 C210.927541,35.5655641 210.479288,35.5594062 210.207084,35.2732423 C209.934526,34.9867162 209.939829,34.5281296 210.219457,34.2488482 L215.062572,29.4086946 L210.220871,24.7525552 C209.936293,24.4787072 209.922153,24.0204828 210.189408,23.7285233 C210.456663,23.4369259 210.903856,23.4224366 211.188433,23.6962845 L219.148111,31.3502619 L226.788214,23.7143962 C227.067489,23.4347525 227.515742,23.4409105 227.787946,23.7270743 C228.060504,24.0136004 228.055201,24.472187 227.775573,24.7514685 L222.932811,29.5912599 L227.774513,34.2473993 C228.059443,34.5212472 228.073584,34.9794716 227.806329,35.2710689 C227.667045,35.4235689 227.47933,35.5 227.290908,35.5 Z" id="Shape"></path>
                </g>
            </g>
        </g>
    </g>
</svg>